<svg xmlns="http://www.w3.org/2000/svg" xmlns:xlink="http://www.w3.org/1999/xlink" width="2000" zoomAndPan="magnify" viewBox="0 0 1500 1499.999933" height="2000" preserveAspectRatio="xMidYMid meet" version="1.0"><defs><g/><clipPath id="ded3f46715"><rect x="0" width="1205" y="0" height="1500"/></clipPath></defs><g transform="matrix(1, 0, 0, 1, 149, 0.000000000000112861)"><g clip-path="url(#ded3f46715)"><g fill="#454b5a" fill-opacity="1"><g transform="translate(0.506397, 1183.269678)"><g><path d="M 452.171875 11.28125 C 364.972656 11.28125 292.429688 -6.007812 234.546875 -40.59375 C 176.660156 -75.175781 133.429688 -123.472656 104.859375 -185.484375 C 76.296875 -247.503906 62.015625 -320.238281 62.015625 -403.6875 C 62.015625 -484.875 76.296875 -556.476562 104.859375 -618.5 C 133.429688 -680.519531 176.847656 -729.007812 235.109375 -763.96875 C 293.367188 -798.925781 366.851562 -816.40625 455.5625 -816.40625 C 536 -816.40625 598.207031 -803.625 642.1875 -778.0625 C 686.164062 -752.5 708.15625 -721.300781 708.15625 -684.46875 C 708.15625 -656.65625 696.125 -633.539062 672.0625 -615.125 C 648.007812 -596.707031 613.054688 -587.5 567.203125 -587.5 C 567.203125 -663.414062 556.300781 -718.664062 534.5 -753.25 C 512.695312 -787.832031 477.738281 -805.125 429.625 -805.125 C 367.226562 -805.125 321.929688 -773.363281 293.734375 -709.84375 C 265.546875 -646.320312 251.453125 -544.269531 251.453125 -403.6875 C 251.453125 -262.363281 268.929688 -159.9375 303.890625 -96.40625 C 338.847656 -32.882812 395.039062 -1.125 472.46875 -1.125 C 583.726562 -1.125 651.765625 -62.769531 676.578125 -186.0625 C 696.867188 -177.789062 707.015625 -161.25 707.015625 -136.4375 C 707.015625 -116.144531 699.117188 -94.535156 683.328125 -71.609375 C 667.546875 -48.679688 641.050781 -29.132812 603.84375 -12.96875 C 566.632812 3.195312 516.078125 11.28125 452.171875 11.28125 Z M 452.171875 11.28125 "/></g></g></g><g fill="#454b5a" fill-opacity="1"><g transform="translate(753.725613, 1183.269678)"><g><path d="M -23.6875 270.625 L -23.6875 259.359375 L -3.390625 259.359375 C 20.671875 259.359375 43.601562 252.96875 65.40625 240.1875 C 87.207031 227.40625 104.875 206.351562 118.40625 177.03125 C 131.9375 147.71875 138.703125 107.878906 138.703125 57.515625 L 138.703125 -725.0625 C 138.703125 -755.132812 133.0625 -774.113281 121.78125 -782 C 110.507812 -789.894531 96.976562 -793.84375 81.1875 -793.84375 L 33.828125 -793.84375 L 33.828125 -805.125 L 422.859375 -805.125 L 422.859375 -793.84375 L 375.5 -793.84375 C 358.957031 -793.84375 345.046875 -789.707031 333.765625 -781.4375 C 322.492188 -773.175781 316.859375 -752.878906 316.859375 -720.546875 L 316.859375 2.25 C 316.859375 53.375 308.585938 96.222656 292.046875 130.796875 C 275.515625 165.378906 253.148438 192.816406 224.953125 213.109375 C 196.765625 233.410156 164.628906 248.070312 128.546875 257.09375 C 92.460938 266.113281 55.253906 270.625 16.921875 270.625 Z M -23.6875 270.625 "/></g></g></g></g></g></svg>