<svg xmlns="http://www.w3.org/2000/svg" xmlns:xlink="http://www.w3.org/1999/xlink" width="1214" zoomAndPan="magnify" viewBox="0 0 910.5 293.999989" height="392" preserveAspectRatio="xMidYMid meet" version="1.0"><defs><g/></defs><g fill="#454b5a" fill-opacity="1"><g transform="translate(38.908319, 204.736328)"><g><path d="M 60.234375 1.5 C 48.617188 1.5 38.953125 -0.800781 31.234375 -5.40625 C 23.523438 -10.007812 17.769531 -16.441406 13.96875 -24.703125 C 10.164062 -32.972656 8.265625 -42.664062 8.265625 -53.78125 C 8.265625 -64.59375 10.164062 -74.128906 13.96875 -82.390625 C 17.769531 -90.648438 23.550781 -97.109375 31.3125 -101.765625 C 39.082031 -106.429688 48.875 -108.765625 60.6875 -108.765625 C 71.40625 -108.765625 79.691406 -107.0625 85.546875 -103.65625 C 91.410156 -100.25 94.34375 -96.09375 94.34375 -91.1875 C 94.34375 -87.476562 92.738281 -84.394531 89.53125 -81.9375 C 86.320312 -79.488281 81.664062 -78.265625 75.5625 -78.265625 C 75.5625 -88.378906 74.109375 -95.738281 71.203125 -100.34375 C 68.296875 -104.945312 63.640625 -107.25 57.234375 -107.25 C 48.921875 -107.25 42.882812 -103.019531 39.125 -94.5625 C 35.375 -86.101562 33.5 -72.507812 33.5 -53.78125 C 33.5 -34.945312 35.828125 -21.300781 40.484375 -12.84375 C 45.140625 -4.382812 52.625 -0.15625 62.9375 -0.15625 C 77.757812 -0.15625 86.820312 -8.363281 90.125 -24.78125 C 92.832031 -23.6875 94.1875 -21.484375 94.1875 -18.171875 C 94.1875 -15.472656 93.132812 -12.59375 91.03125 -9.53125 C 88.925781 -6.476562 85.394531 -3.875 80.4375 -1.71875 C 75.476562 0.425781 68.742188 1.5 60.234375 1.5 Z M 60.234375 1.5 "/></g></g></g><g fill="#454b5a" fill-opacity="1"><g transform="translate(139.248889, 204.736328)"><g><path d="M 30.796875 1.5 C 23.285156 1.5 17.398438 -0.625 13.140625 -4.875 C 8.890625 -9.132812 6.765625 -14.820312 6.765625 -21.9375 C 6.765625 -29.644531 9.539062 -35.203125 15.09375 -38.609375 C 20.65625 -42.015625 29.09375 -43.914062 40.40625 -44.3125 L 52.734375 -44.765625 L 52.734375 -63.84375 C 52.734375 -70.351562 52.054688 -74.832031 50.703125 -77.28125 C 49.347656 -79.738281 46.96875 -80.96875 43.5625 -80.96875 C 39.550781 -80.96875 36.84375 -79.265625 35.4375 -75.859375 C 34.039062 -72.453125 33.34375 -66.191406 33.34375 -57.078125 C 26.632812 -57.078125 21.578125 -57.828125 18.171875 -59.328125 C 14.765625 -60.835938 13.0625 -63.492188 13.0625 -67.296875 C 13.0625 -70.898438 14.460938 -73.800781 17.265625 -76 C 20.078125 -78.207031 23.8125 -79.835938 28.46875 -80.890625 C 33.125 -81.941406 38.304688 -82.46875 44.015625 -82.46875 C 54.523438 -82.46875 62.410156 -80.5625 67.671875 -76.75 C 72.929688 -72.945312 75.5625 -66.34375 75.5625 -56.9375 L 75.5625 -12.171875 C 75.5625 -8.066406 76.210938 -5.257812 77.515625 -3.75 C 78.816406 -2.25 81.171875 -1.5 84.578125 -1.5 L 85.171875 -1.5 L 85.171875 0 L 53.03125 0 L 53.03125 -15.171875 L 52.734375 -15.171875 C 50.828125 -8.660156 47.894531 -4.253906 43.9375 -1.953125 C 39.976562 0.347656 35.597656 1.5 30.796875 1.5 Z M 38.453125 -2.703125 C 41.359375 -2.703125 43.882812 -3.800781 46.03125 -6 C 48.1875 -8.207031 49.84375 -11.0625 51 -14.5625 C 52.15625 -18.070312 52.734375 -21.78125 52.734375 -25.6875 L 52.734375 -43.265625 L 45.96875 -42.96875 C 39.957031 -42.664062 35.800781 -40.9375 33.5 -37.78125 C 31.195312 -34.625 30.046875 -29.488281 30.046875 -22.375 C 30.046875 -15.070312 30.742188 -9.96875 32.140625 -7.0625 C 33.546875 -4.15625 35.648438 -2.703125 38.453125 -2.703125 Z M 38.453125 -2.703125 "/></g></g></g><g fill="#454b5a" fill-opacity="1"><g transform="translate(229.224938, 204.736328)"><g><path d="M 4.5 36.046875 L 4.5 34.546875 L 6.3125 34.546875 C 7.707031 34.546875 9.253906 34.320312 10.953125 33.875 C 12.660156 33.425781 14.085938 32.523438 15.234375 31.171875 C 16.390625 29.816406 16.96875 27.6875 16.96875 24.78125 L 16.96875 -69.859375 C 16.96875 -72.554688 16.367188 -74.554688 15.171875 -75.859375 C 13.972656 -77.160156 12.546875 -78.007812 10.890625 -78.40625 C 9.234375 -78.8125 7.707031 -79.015625 6.3125 -79.015625 L 5.859375 -79.015625 L 5.859375 -80.515625 L 39.65625 -80.515625 L 39.65625 -61.734375 L 39.953125 -61.734375 C 41.054688 -68.742188 43.5625 -73.925781 47.46875 -77.28125 C 51.375 -80.632812 56.332031 -82.3125 62.34375 -82.3125 C 71.957031 -82.3125 79.367188 -78.984375 84.578125 -72.328125 C 89.785156 -65.671875 92.390625 -55.082031 92.390625 -40.5625 C 92.390625 -25.9375 89.757812 -15.269531 84.5 -8.5625 C 79.238281 -1.851562 71.601562 1.5 61.59375 1.5 C 55.976562 1.5 51.21875 -0.273438 47.3125 -3.828125 C 43.40625 -7.378906 40.953125 -12.960938 39.953125 -20.578125 L 39.65625 -20.578125 C 39.757812 -17.472656 39.8125 -14.117188 39.8125 -10.515625 C 39.8125 -6.910156 39.8125 -3.40625 39.8125 0 L 39.8125 24.78125 C 39.8125 27.6875 40.382812 29.816406 41.53125 31.171875 C 42.6875 32.523438 44.113281 33.425781 45.8125 33.875 C 47.519531 34.320312 49.070312 34.546875 50.46875 34.546875 L 53.78125 34.546875 L 53.78125 36.046875 Z M 55.28125 -2.25 C 64.59375 -2.25 69.25 -15.71875 69.25 -42.65625 C 69.25 -66.59375 64.691406 -78.5625 55.578125 -78.5625 C 45.066406 -78.5625 39.8125 -66.59375 39.8125 -42.65625 C 39.8125 -15.71875 44.96875 -2.25 55.28125 -2.25 Z M 55.28125 -2.25 "/></g></g></g><g fill="#454b5a" fill-opacity="1"><g transform="translate(323.106336, 204.736328)"><g><path d="M 4.65625 36.046875 L 4.65625 34.546875 C 11.46875 34.546875 17.050781 33.96875 21.40625 32.8125 C 25.757812 31.664062 29.285156 29.914062 31.984375 27.5625 C 34.691406 25.207031 37 22.203125 38.90625 18.546875 C 40.8125 14.890625 42.816406 10.5625 44.921875 5.5625 L 8.40625 -71.796875 C 7.101562 -74.503906 5.925781 -76.382812 4.875 -77.4375 C 3.832031 -78.488281 2.507812 -79.015625 0.90625 -79.015625 L 0 -79.015625 L 0 -80.515625 L 43.109375 -80.515625 L 43.265625 -79.015625 L 40.265625 -79.015625 C 37.359375 -79.015625 35.203125 -78.660156 33.796875 -77.953125 C 32.398438 -77.253906 31.703125 -76.054688 31.703125 -74.359375 C 31.703125 -72.648438 32.300781 -70.394531 33.5 -67.59375 L 48.21875 -33.796875 C 49.925781 -29.890625 51.175781 -27.0625 51.96875 -25.3125 C 52.769531 -23.5625 53.523438 -21.785156 54.234375 -19.984375 C 54.929688 -22.085938 55.65625 -24.0625 56.40625 -25.90625 C 57.15625 -27.757812 57.78125 -29.4375 58.28125 -30.9375 L 71.046875 -65.5 C 72.253906 -68.695312 72.859375 -71.25 72.859375 -73.15625 C 72.859375 -75.363281 72.082031 -76.890625 70.53125 -77.734375 C 68.976562 -78.585938 66.445312 -79.015625 62.9375 -79.015625 L 56.625 -79.015625 L 56.625 -80.515625 L 86.984375 -80.515625 L 86.984375 -79.015625 L 86.671875 -79.015625 C 83.265625 -79.015625 80.582031 -78.160156 78.625 -76.453125 C 76.675781 -74.753906 74.90625 -71.703125 73.3125 -67.296875 L 48.375 0.59375 C 45.769531 7.8125 43.265625 13.722656 40.859375 18.328125 C 38.453125 22.929688 35.742188 26.535156 32.734375 29.140625 C 29.734375 31.742188 26.03125 33.546875 21.625 34.546875 C 17.21875 35.546875 11.710938 36.046875 5.109375 36.046875 Z M 4.65625 36.046875 "/></g></g></g><g fill="#454b5a" fill-opacity="1"><g transform="translate(410.078164, 204.736328)"><g/></g></g><g fill="#454b5a" fill-opacity="1"><g transform="translate(443.875521, 204.736328)"><g><path d="M -3.15625 36.046875 L -3.15625 34.546875 L -0.453125 34.546875 C 2.753906 34.546875 5.804688 33.691406 8.703125 31.984375 C 11.609375 30.285156 13.960938 27.484375 15.765625 23.578125 C 17.578125 19.671875 18.484375 14.363281 18.484375 7.65625 L 18.484375 -96.59375 C 18.484375 -100.59375 17.726562 -103.117188 16.21875 -104.171875 C 14.71875 -105.222656 12.914062 -105.75 10.8125 -105.75 L 4.5 -105.75 L 4.5 -107.25 L 56.328125 -107.25 L 56.328125 -105.75 L 50.015625 -105.75 C 47.816406 -105.75 45.96875 -105.195312 44.46875 -104.09375 C 42.96875 -103 42.21875 -100.296875 42.21875 -95.984375 L 42.21875 0.296875 C 42.21875 7.109375 41.113281 12.816406 38.90625 17.421875 C 36.707031 22.023438 33.726562 25.679688 29.96875 28.390625 C 26.207031 31.097656 21.925781 33.050781 17.125 34.25 C 12.320312 35.445312 7.363281 36.046875 2.25 36.046875 Z M -3.15625 36.046875 "/></g></g></g><g fill="#454b5a" fill-opacity="1"><g transform="translate(503.509062, 204.736328)"><g><path d="M 40.5625 1.5 C 31.75 1.5 25.1875 -0.800781 20.875 -5.40625 C 16.570312 -10.007812 14.421875 -17.367188 14.421875 -27.484375 L 14.421875 -68.34375 C 14.421875 -73.050781 13.59375 -76.003906 11.9375 -77.203125 C 10.289062 -78.410156 7.765625 -79.015625 4.359375 -79.015625 L 3.90625 -79.015625 L 3.90625 -80.515625 L 37.25 -80.515625 L 37.25 -22.53125 C 37.25 -16.125 38.097656 -11.265625 39.796875 -7.953125 C 41.503906 -4.648438 44.410156 -3 48.515625 -3 C 53.828125 -3 57.457031 -5.648438 59.40625 -10.953125 C 61.363281 -16.265625 62.34375 -23.128906 62.34375 -31.546875 L 62.34375 -69.25 C 62.34375 -72.15625 61.765625 -74.28125 60.609375 -75.625 C 59.460938 -76.976562 58.035156 -77.878906 56.328125 -78.328125 C 54.628906 -78.785156 53.078125 -79.015625 51.671875 -79.015625 L 51.078125 -79.015625 L 51.078125 -80.515625 L 85.171875 -80.515625 L 85.171875 -10.671875 C 85.171875 -7.960938 85.769531 -5.957031 86.96875 -4.65625 C 88.175781 -3.351562 89.601562 -2.5 91.25 -2.09375 C 92.90625 -1.695312 94.4375 -1.5 95.84375 -1.5 L 96.4375 -1.5 L 96.4375 0 L 62.34375 0 L 62.34375 -14.125 L 62.046875 -14.125 C 60.941406 -9.613281 59.238281 -6.253906 56.9375 -4.046875 C 54.632812 -1.847656 52.078125 -0.375 49.265625 0.375 C 46.460938 1.125 43.5625 1.5 40.5625 1.5 Z M 40.5625 1.5 "/></g></g></g><g fill="#454b5a" fill-opacity="1"><g transform="translate(603.699429, 204.736328)"><g><path d="M 37.703125 1.5 C 27.585938 1.5 19.925781 -1.851562 14.71875 -8.5625 C 9.507812 -15.269531 6.90625 -25.9375 6.90625 -40.5625 C 6.90625 -55.082031 9.507812 -65.671875 14.71875 -72.328125 C 19.925781 -78.984375 27.335938 -82.3125 36.953125 -82.3125 C 42.960938 -82.3125 47.921875 -80.632812 51.828125 -77.28125 C 55.734375 -73.925781 58.238281 -68.742188 59.34375 -61.734375 L 59.640625 -61.734375 C 59.535156 -67.742188 59.484375 -73.078125 59.484375 -77.734375 C 59.484375 -82.390625 59.484375 -85.972656 59.484375 -88.484375 L 59.484375 -103.5 C 59.484375 -106.207031 58.878906 -108.210938 57.671875 -109.515625 C 56.472656 -110.816406 55.046875 -111.664062 53.390625 -112.0625 C 51.742188 -112.457031 50.222656 -112.65625 48.828125 -112.65625 L 47.015625 -112.65625 L 47.015625 -114.171875 L 82.3125 -114.171875 L 82.3125 -11.265625 C 82.3125 -8.359375 82.890625 -6.226562 84.046875 -4.875 C 85.203125 -3.53125 86.601562 -2.628906 88.25 -2.171875 C 89.90625 -1.722656 91.484375 -1.5 92.984375 -1.5 L 94.78125 -1.5 L 94.78125 0 L 59.640625 0 L 59.640625 -20.578125 L 59.34375 -20.578125 C 58.238281 -12.960938 55.753906 -7.378906 51.890625 -3.828125 C 48.035156 -0.273438 43.304688 1.5 37.703125 1.5 Z M 44.015625 -2.25 C 54.328125 -2.25 59.484375 -15.71875 59.484375 -42.65625 C 59.484375 -66.59375 54.226562 -78.5625 43.71875 -78.5625 C 34.601562 -78.5625 30.046875 -66.59375 30.046875 -42.65625 C 30.046875 -15.71875 34.703125 -2.25 44.015625 -2.25 Z M 44.015625 -2.25 "/></g></g></g><g fill="#454b5a" fill-opacity="1"><g transform="translate(701.185991, 204.736328)"><g><path d="M 35.453125 36.046875 C 23.035156 36.046875 14.097656 34.492188 8.640625 31.390625 C 3.179688 28.285156 0.453125 23.984375 0.453125 18.484375 C 0.453125 13.972656 2.40625 10.363281 6.3125 7.65625 C 10.21875 4.957031 16.976562 3.359375 26.59375 2.859375 C 21.1875 1.953125 16.976562 0 13.96875 -3 C 10.96875 -6.007812 9.46875 -9.566406 9.46875 -13.671875 C 9.46875 -17.671875 10.867188 -21.023438 13.671875 -23.734375 C 16.472656 -26.441406 20.378906 -28.644531 25.390625 -30.34375 C 19.878906 -32.039062 15.546875 -34.96875 12.390625 -39.125 C 9.234375 -43.28125 7.65625 -48.460938 7.65625 -54.671875 C 7.65625 -63.492188 10.207031 -70.332031 15.3125 -75.1875 C 20.425781 -80.039062 28.34375 -82.46875 39.0625 -82.46875 C 42.96875 -82.46875 46.597656 -81.941406 49.953125 -80.890625 C 53.304688 -79.835938 56.234375 -78.3125 58.734375 -76.3125 C 61.335938 -79.914062 63.738281 -82.46875 65.9375 -83.96875 C 68.144531 -85.46875 70.648438 -86.21875 73.453125 -86.21875 C 76.554688 -86.21875 78.984375 -85.414062 80.734375 -83.8125 C 82.492188 -82.21875 83.375 -80.164062 83.375 -77.65625 C 83.375 -75.65625 82.617188 -73.726562 81.109375 -71.875 C 79.609375 -70.019531 76.804688 -69.09375 72.703125 -69.09375 C 72.703125 -71.90625 72.050781 -74.085938 70.75 -75.640625 C 69.445312 -77.191406 67.742188 -77.96875 65.640625 -77.96875 C 63.335938 -77.96875 61.4375 -77.113281 59.9375 -75.40625 C 62.9375 -72.90625 65.265625 -69.898438 66.921875 -66.390625 C 68.578125 -62.890625 69.40625 -58.984375 69.40625 -54.671875 C 69.40625 -47.066406 66.945312 -40.785156 62.03125 -35.828125 C 57.125 -30.867188 49.46875 -28.390625 39.0625 -28.390625 C 34.445312 -28.390625 30.441406 -28.890625 27.046875 -29.890625 C 25.140625 -28.785156 23.832031 -27.707031 23.125 -26.65625 C 22.425781 -25.613281 22.078125 -24.390625 22.078125 -22.984375 C 22.078125 -18.578125 25.382812 -16.375 32 -16.375 L 50.171875 -16.375 C 60.179688 -16.375 67.488281 -14.34375 72.09375 -10.28125 C 76.707031 -6.226562 79.015625 -0.597656 79.015625 6.609375 C 79.015625 15.828125 75.457031 23.035156 68.34375 28.234375 C 61.238281 33.441406 50.273438 36.046875 35.453125 36.046875 Z M 38.609375 -29.890625 C 42.316406 -29.890625 44.945312 -31.71875 46.5 -35.375 C 48.050781 -39.03125 48.828125 -45.460938 48.828125 -54.671875 C 48.828125 -64.390625 48.050781 -71.203125 46.5 -75.109375 C 44.945312 -79.015625 42.265625 -80.96875 38.453125 -80.96875 C 34.648438 -80.96875 31.972656 -78.988281 30.421875 -75.03125 C 28.867188 -71.070312 28.09375 -64.1875 28.09375 -54.375 C 28.09375 -45.257812 28.867188 -38.898438 30.421875 -35.296875 C 31.972656 -31.691406 34.703125 -29.890625 38.609375 -29.890625 Z M 37.25 34.546875 C 44.757812 34.546875 50.84375 33.144531 55.5 30.34375 C 60.15625 27.539062 62.484375 22.882812 62.484375 16.375 C 62.484375 12.269531 61.40625 9.085938 59.25 6.828125 C 57.101562 4.578125 53.628906 3.453125 48.828125 3.453125 L 33.5 3.453125 C 28.09375 3.453125 24.160156 4.753906 21.703125 7.359375 C 19.253906 9.960938 18.03125 13.617188 18.03125 18.328125 C 18.03125 23.929688 19.65625 28.035156 22.90625 30.640625 C 26.164062 33.242188 30.945312 34.546875 37.25 34.546875 Z M 37.25 34.546875 "/></g></g></g><g fill="#454b5a" fill-opacity="1"><g transform="translate(785.303857, 204.736328)"><g><path d="M 46.71875 1.5 C 33.695312 1.5 23.832031 -2.101562 17.125 -9.3125 C 10.414062 -16.519531 7.0625 -26.6875 7.0625 -39.8125 C 7.0625 -53.925781 10.289062 -64.5625 16.75 -71.71875 C 23.207031 -78.882812 32.394531 -82.46875 44.3125 -82.46875 C 55.226562 -82.46875 63.816406 -79.410156 70.078125 -73.296875 C 76.335938 -67.191406 79.46875 -58.179688 79.46875 -46.265625 L 79.46875 -42.65625 L 30.1875 -42.65625 C 30.1875 -27.4375 31.738281 -16.546875 34.84375 -9.984375 C 37.945312 -3.429688 43.054688 -0.15625 50.171875 -0.15625 C 55.378906 -0.15625 59.859375 -1.878906 63.609375 -5.328125 C 67.367188 -8.785156 69.75 -14.617188 70.75 -22.828125 C 72.75 -22.429688 74.175781 -21.582031 75.03125 -20.28125 C 75.882812 -18.976562 76.3125 -17.472656 76.3125 -15.765625 C 76.3125 -12.867188 75.207031 -10.117188 73 -7.515625 C 70.800781 -4.910156 67.519531 -2.753906 63.15625 -1.046875 C 58.800781 0.648438 53.320312 1.5 46.71875 1.5 Z M 30.1875 -44.171875 L 56.625 -44.171875 C 56.625 -53.179688 56.273438 -60.390625 55.578125 -65.796875 C 54.878906 -71.203125 53.628906 -75.082031 51.828125 -77.4375 C 50.023438 -79.789062 47.519531 -80.96875 44.3125 -80.96875 C 39.40625 -80.96875 35.847656 -78.238281 33.640625 -72.78125 C 31.441406 -67.320312 30.289062 -57.785156 30.1875 -44.171875 Z M 30.1875 -44.171875 "/></g></g></g></svg>